<mxfile host="app.diagrams.net" modified="2020-08-31T14:13:45.238Z" agent="5.0 (X11; Linux x86_64) AppleWebKit/537.36 (KHTML, like Gecko) Chrome/83.0.4103.116 Safari/537.36" etag="1e2xKyRprKoPOmp69rWO" version="13.6.6" type="github">
  <diagram id="XNAhClGBbjb06SnyfVDq" name="Page-1">
    <mxGraphModel dx="801" dy="494" grid="1" gridSize="10" guides="1" tooltips="1" connect="1" arrows="1" fold="1" page="1" pageScale="1" pageWidth="827" pageHeight="1169" math="0" shadow="0">
      <root>
        <mxCell id="0" />
        <mxCell id="1" parent="0" />
        <mxCell id="x97qK44pdzID6g6w5QUF-141" style="edgeStyle=orthogonalEdgeStyle;rounded=0;orthogonalLoop=1;jettySize=auto;html=1;exitX=0;exitY=0.5;exitDx=0;exitDy=0;entryX=1;entryY=0.5;entryDx=0;entryDy=0;strokeColor=#000000;" edge="1" parent="1" source="x97qK44pdzID6g6w5QUF-99" target="x97qK44pdzID6g6w5QUF-130">
          <mxGeometry relative="1" as="geometry" />
        </mxCell>
        <mxCell id="x97qK44pdzID6g6w5QUF-99" value="&lt;span style=&quot;border-bottom: 1px dotted&quot;&gt;correspond&lt;br&gt;&lt;br&gt;&lt;/span&gt;" style="ellipse;whiteSpace=wrap;html=1;align=center;" vertex="1" parent="1">
          <mxGeometry x="560" y="80" width="100" height="40" as="geometry" />
        </mxCell>
        <mxCell id="x97qK44pdzID6g6w5QUF-133" style="edgeStyle=orthogonalEdgeStyle;rounded=0;orthogonalLoop=1;jettySize=auto;html=1;entryX=0.44;entryY=1.025;entryDx=0;entryDy=0;entryPerimeter=0;strokeColor=#000000;" edge="1" parent="1" source="x97qK44pdzID6g6w5QUF-92" target="x97qK44pdzID6g6w5QUF-132">
          <mxGeometry relative="1" as="geometry" />
        </mxCell>
        <mxCell id="x97qK44pdzID6g6w5QUF-113" value="&lt;font style=&quot;font-size: 14px&quot;&gt;1,1&lt;/font&gt;" style="text;html=1;align=center;verticalAlign=middle;resizable=0;points=[];autosize=1;" vertex="1" parent="1">
          <mxGeometry x="580" y="215" width="30" height="20" as="geometry" />
        </mxCell>
        <mxCell id="x97qK44pdzID6g6w5QUF-114" value="&lt;font style=&quot;font-size: 14px&quot;&gt;0,n&lt;/font&gt;" style="text;html=1;align=center;verticalAlign=middle;resizable=0;points=[];autosize=1;" vertex="1" parent="1">
          <mxGeometry x="520" y="40" width="30" height="20" as="geometry" />
        </mxCell>
        <mxCell id="x97qK44pdzID6g6w5QUF-115" style="edgeStyle=orthogonalEdgeStyle;rounded=0;orthogonalLoop=1;jettySize=auto;html=1;entryX=1;entryY=0.5;entryDx=0;entryDy=0;strokeColor=#000000;" edge="1" parent="1" source="x97qK44pdzID6g6w5QUF-95" target="x97qK44pdzID6g6w5QUF-99">
          <mxGeometry relative="1" as="geometry" />
        </mxCell>
        <mxCell id="x97qK44pdzID6g6w5QUF-142" style="edgeStyle=orthogonalEdgeStyle;rounded=0;orthogonalLoop=1;jettySize=auto;html=1;strokeColor=#000000;" edge="1" parent="1" source="x97qK44pdzID6g6w5QUF-124" target="x97qK44pdzID6g6w5QUF-131">
          <mxGeometry relative="1" as="geometry" />
        </mxCell>
        <mxCell id="x97qK44pdzID6g6w5QUF-124" value="&lt;span style=&quot;border-bottom: 1px dotted&quot;&gt;Correspond&lt;br&gt;&lt;br&gt;&lt;/span&gt;" style="ellipse;whiteSpace=wrap;html=1;align=center;" vertex="1" parent="1">
          <mxGeometry x="364" y="205" width="100" height="40" as="geometry" />
        </mxCell>
        <mxCell id="x97qK44pdzID6g6w5QUF-127" style="edgeStyle=orthogonalEdgeStyle;rounded=0;orthogonalLoop=1;jettySize=auto;html=1;strokeColor=#000000;" edge="1" parent="1" source="x97qK44pdzID6g6w5QUF-122" target="x97qK44pdzID6g6w5QUF-124">
          <mxGeometry relative="1" as="geometry">
            <mxPoint x="330" y="280" as="targetPoint" />
          </mxGeometry>
        </mxCell>
        <mxCell id="x97qK44pdzID6g6w5QUF-128" value="&lt;font style=&quot;font-size: 14px&quot;&gt;1,1&lt;/font&gt;" style="text;html=1;align=center;verticalAlign=middle;resizable=0;points=[];autosize=1;" vertex="1" parent="1">
          <mxGeometry x="290" y="320" width="30" height="20" as="geometry" />
        </mxCell>
        <mxCell id="x97qK44pdzID6g6w5QUF-129" value="&lt;font style=&quot;font-size: 14px&quot;&gt;0,n&lt;/font&gt;" style="text;html=1;align=center;verticalAlign=middle;resizable=0;points=[];autosize=1;" vertex="1" parent="1">
          <mxGeometry x="350" y="165" width="30" height="20" as="geometry" />
        </mxCell>
        <mxCell id="x97qK44pdzID6g6w5QUF-134" style="edgeStyle=orthogonalEdgeStyle;rounded=0;orthogonalLoop=1;jettySize=auto;html=1;entryX=0;entryY=0.5;entryDx=0;entryDy=0;strokeColor=#000000;" edge="1" parent="1" source="x97qK44pdzID6g6w5QUF-132" target="x97qK44pdzID6g6w5QUF-131">
          <mxGeometry relative="1" as="geometry" />
        </mxCell>
        <mxCell id="x97qK44pdzID6g6w5QUF-132" value="&lt;span style=&quot;border-bottom: 1px dotted&quot;&gt;appartient&lt;/span&gt;" style="ellipse;whiteSpace=wrap;html=1;align=center;" vertex="1" parent="1">
          <mxGeometry x="90" y="70" width="100" height="40" as="geometry" />
        </mxCell>
        <mxCell id="x97qK44pdzID6g6w5QUF-135" value="&lt;font style=&quot;font-size: 14px&quot;&gt;1,1&lt;/font&gt;" style="text;html=1;align=center;verticalAlign=middle;resizable=0;points=[];autosize=1;" vertex="1" parent="1">
          <mxGeometry x="180" y="205" width="30" height="20" as="geometry" />
        </mxCell>
        <mxCell id="x97qK44pdzID6g6w5QUF-137" value="&lt;font style=&quot;font-size: 14px&quot;&gt;1,1&lt;/font&gt;" style="text;html=1;align=center;verticalAlign=middle;resizable=0;points=[];autosize=1;" vertex="1" parent="1">
          <mxGeometry x="304" y="130" width="30" height="20" as="geometry" />
        </mxCell>
        <mxCell id="x97qK44pdzID6g6w5QUF-130" value="Employe" style="swimlane;childLayout=stackLayout;horizontal=1;startSize=30;horizontalStack=0;rounded=1;fontSize=14;fontStyle=0;strokeWidth=2;resizeParent=0;resizeLast=1;shadow=0;dashed=0;align=center;" vertex="1" parent="1">
          <mxGeometry x="350" y="40" width="160" height="120" as="geometry" />
        </mxCell>
        <mxCell id="x97qK44pdzID6g6w5QUF-131" value="id_employe" style="align=left;strokeColor=none;fillColor=none;spacingLeft=4;fontSize=12;verticalAlign=top;resizable=0;rotatable=0;part=1;" vertex="1" parent="x97qK44pdzID6g6w5QUF-130">
          <mxGeometry y="30" width="160" height="90" as="geometry" />
        </mxCell>
        <mxCell id="x97qK44pdzID6g6w5QUF-94" value="Recharge" style="swimlane;childLayout=stackLayout;horizontal=1;startSize=30;horizontalStack=0;rounded=1;fontSize=14;fontStyle=0;strokeWidth=2;resizeParent=0;resizeLast=1;shadow=0;dashed=0;align=center;" vertex="1" parent="1">
          <mxGeometry x="590" y="245" width="160" height="135" as="geometry" />
        </mxCell>
        <mxCell id="x97qK44pdzID6g6w5QUF-95" value="+id_recharge&#xa;+solde_ajouté&#xa;+date_recharge&#xa;+date_expiration&#xa;+type_recharge" style="align=left;strokeColor=none;fillColor=none;spacingLeft=4;fontSize=12;verticalAlign=top;resizable=0;rotatable=0;part=1;" vertex="1" parent="x97qK44pdzID6g6w5QUF-94">
          <mxGeometry y="30" width="160" height="105" as="geometry" />
        </mxCell>
        <mxCell id="x97qK44pdzID6g6w5QUF-92" value="Solde" style="swimlane;childLayout=stackLayout;horizontal=1;startSize=30;horizontalStack=0;rounded=1;fontSize=14;fontStyle=0;strokeWidth=2;resizeParent=0;resizeLast=1;shadow=0;dashed=0;align=center;" vertex="1" parent="1">
          <mxGeometry x="35" y="230" width="160" height="110" as="geometry" />
        </mxCell>
        <mxCell id="x97qK44pdzID6g6w5QUF-93" value="+id_solde&#xa;+projet&#xa;+solde_data_restant&#xa;+consommation_du_jour&#xa;+moyenne_mobile" style="align=left;strokeColor=none;fillColor=none;spacingLeft=4;fontSize=12;verticalAlign=top;resizable=0;rotatable=0;part=1;" vertex="1" parent="x97qK44pdzID6g6w5QUF-92">
          <mxGeometry y="30" width="160" height="80" as="geometry" />
        </mxCell>
        <mxCell id="x97qK44pdzID6g6w5QUF-121" value="Consommation" style="swimlane;childLayout=stackLayout;horizontal=1;startSize=30;horizontalStack=0;rounded=1;fontSize=14;fontStyle=0;strokeWidth=2;resizeParent=0;resizeLast=1;shadow=0;dashed=0;align=center;" vertex="1" parent="1">
          <mxGeometry x="330" y="320" width="160" height="120" as="geometry" />
        </mxCell>
        <mxCell id="x97qK44pdzID6g6w5QUF-122" value="+id_consommation&#xa;+solde_consommé&#xa;+commentaire&#xa;+date_consommation" style="align=left;strokeColor=none;fillColor=none;spacingLeft=4;fontSize=12;verticalAlign=top;resizable=0;rotatable=0;part=1;" vertex="1" parent="x97qK44pdzID6g6w5QUF-121">
          <mxGeometry y="30" width="160" height="90" as="geometry" />
        </mxCell>
      </root>
    </mxGraphModel>
  </diagram>
</mxfile>
